<?xml version="1.0" standalone="no"?>
<!DOCTYPE svg PUBLIC "-//W3C//DTD SVG 20010904//EN"
 "http://www.w3.org/TR/2001/REC-SVG-20010904/DTD/svg10.dtd">
<svg version="1.0" xmlns="http://www.w3.org/2000/svg"
 width="512.000000pt" height="512.000000pt" viewBox="0 0 512.000000 512.000000"
 preserveAspectRatio="xMidYMid meet">

<g transform="translate(0.000000,512.000000) scale(0.100000,-0.100000)"
fill="#000000" stroke="none">
<path d="M1556 4289 c-22 -94 -26 -125 -26 -214 0 -99 22 -220 52 -292 l14
-33 44 68 c58 88 198 228 279 277 l63 39 -48 43 c-27 24 -86 62 -132 85 -70
35 -93 42 -162 46 -77 4 -79 4 -84 -19z"/>
<path d="M3395 4296 c-65 -21 -137 -61 -199 -111 l-57 -47 68 -46 c86 -57 216
-187 273 -274 l44 -68 14 33 c46 109 66 324 42 437 -22 99 -14 90 -83 89 -34
0 -80 -6 -102 -13z"/>
<path d="M1670 3613 c-58 -6 -70 -17 -70 -65 0 -33 6 -46 34 -72 50 -47 63
-73 86 -169 24 -103 46 -151 92 -196 119 -119 377 -127 523 -15 44 34 111 134
163 247 36 77 44 87 67 87 23 0 31 -10 66 -86 102 -220 188 -300 352 -323 128
-18 247 13 326 85 54 48 76 92 101 201 23 96 36 122 86 169 28 26 34 39 34 72
0 23 -6 45 -15 52 -11 9 -72 14 -198 18 -210 5 -377 -11 -607 -58 l-145 -30
-145 30 c-255 52 -532 72 -750 53z m455 -53 c122 -14 221 -45 257 -80 23 -24
28 -37 28 -78 0 -108 -64 -246 -139 -300 -57 -42 -116 -55 -213 -50 -169 9
-277 110 -294 275 -14 135 44 214 171 233 73 11 91 11 190 0z m1125 -12 c80
-24 114 -82 114 -193 0 -93 -20 -149 -78 -213 -53 -59 -114 -84 -217 -90 -103
-6 -166 12 -225 62 -93 79 -156 286 -108 354 43 61 228 105 404 95 41 -3 91
-9 110 -15z"/>
<path d="M2002 3448 c-29 -29 -6 -68 40 -68 l28 0 0 -74 c0 -64 3 -79 23 -102
17 -20 32 -27 57 -26 52 1 64 22 70 115 l5 82 35 5 c30 4 35 9 38 34 2 16 -2
32 -10 37 -21 14 -272 11 -286 -3z"/>
<path d="M2832 3451 c-8 -4 -12 -21 -10 -37 2 -24 8 -29 34 -32 l31 -3 5 -79
c6 -96 22 -120 79 -120 58 0 79 33 79 126 l0 73 31 3 c39 4 59 30 43 56 -10
15 -30 17 -145 20 -74 1 -140 -2 -147 -7z"/>
<path d="M2412 3038 c-28 -28 -3 -108 47 -151 18 -15 39 -27 47 -27 19 0 18
-30 -2 -58 -24 -35 -72 -55 -116 -49 -46 6 -73 28 -100 80 -20 41 -42 46 -62
14 -9 -14 -6 -28 15 -65 58 -106 194 -130 284 -51 l35 31 35 -31 c65 -57 140
-62 221 -16 50 29 95 105 78 132 -20 32 -42 27 -62 -14 -27 -52 -54 -74 -100
-80 -44 -6 -92 14 -116 49 -24 34 -19 54 14 68 56 23 101 135 68 168 -17 17
-269 17 -286 0z"/>
<path d="M1078 2714 c-17 -9 -31 -28 -38 -52 -8 -26 -10 -306 -8 -927 3 -869
3 -891 23 -924 11 -19 32 -43 47 -54 22 -16 1143 -383 1328 -434 69 -19 226
-13 290 11 25 9 320 104 655 211 336 107 621 203 635 213 14 11 33 33 43 49
16 28 18 94 24 914 3 486 3 901 -1 922 -9 49 -37 77 -77 77 -18 0 -99 -21
-181 -47 -119 -37 -148 -50 -144 -62 2 -9 12 -36 21 -61 33 -89 -8 -156 -114
-186 -31 -9 -73 -25 -94 -36 -61 -30 -125 -38 -259 -29 -139 9 -171 22 -194
78 -8 18 -19 33 -26 33 -6 0 -59 -16 -119 -35 l-107 -35 -59 22 c-82 30 -253
30 -336 0 l-57 -21 -108 34 c-59 19 -110 35 -114 35 -4 0 -14 -15 -22 -33 -23
-56 -55 -69 -194 -78 -134 -9 -198 -1 -259 29 -21 11 -63 27 -94 36 -106 30
-147 97 -114 186 9 25 17 51 18 59 1 11 -45 30 -163 68 -91 29 -167 53 -170
53 -3 -1 -17 -7 -32 -16z m2726 -390 c12 -32 7 -301 -6 -312 -22 -17 -718
-234 -733 -228 -20 7 -22 310 -3 323 17 11 698 231 719 232 9 1 20 -6 23 -15z
m204 -556 c2 -359 1 -396 -14 -402 -43 -16 -44 -3 -44 398 0 394 2 411 40 404
13 -3 15 -54 18 -400z m-1453 218 c86 0 123 4 168 20 l57 21 0 -87 0 -88 -78
-21 c-44 -12 -109 -21 -147 -21 -38 0 -103 9 -147 21 l-78 21 0 88 0 88 58
-21 c45 -17 79 -21 167 -21z m-863 -87 c41 -54 49 -168 18 -237 -17 -38 -23
-43 -47 -40 -42 5 -73 72 -73 161 0 123 53 183 102 116z m197 -44 c24 -73 -15
-224 -65 -247 -74 -34 -108 97 -56 215 25 57 49 79 81 75 20 -2 29 -12 40 -43z
m-336 -153 c58 -64 64 -236 9 -257 -22 -8 -63 24 -84 66 -26 50 -24 148 3 183
24 30 49 33 72 8z m417 -98 c22 -56 3 -162 -36 -205 -21 -23 -61 -25 -86 -2
-26 24 -25 123 3 180 36 74 96 87 119 27z m-194 -131 c42 -55 75 -143 81 -218
4 -50 2 -64 -14 -84 -23 -28 -68 -31 -107 -6 -20 13 -32 14 -63 6 -152 -43
-195 30 -115 193 78 156 153 194 218 109z m2218 -169 c23 -9 23 -132 1 -140
-28 -11 -45 16 -45 70 0 29 5 57 12 64 14 14 12 14 32 6z m-1434 -457 c81 0
118 5 163 21 l58 21 -3 -87 -3 -87 -55 -19 c-79 -28 -253 -28 -330 0 l-55 20
-3 86 -3 86 63 -21 c48 -16 87 -21 168 -20z m1258 -29 c4 -35 6 -34 -222 -103
-195 -59 -220 -60 -214 -7 3 26 12 30 183 84 99 31 196 56 215 55 30 -2 35 -6
38 -29z"/>
</g>
</svg>
